<svg width="15" height="21" viewBox="0 0 15 21" fill="none" xmlns="http://www.w3.org/2000/svg">
<path d="M14.25 18.5C14.4489 18.5 14.6397 18.579 14.7803 18.7197C14.921 18.8603 15 19.0511 15 19.25C15 19.4489 14.921 19.6397 14.7803 19.7803C14.6397 19.921 14.4489 20 14.25 20L1.25 20.004C1.05109 20.004 0.860322 19.925 0.71967 19.7843C0.579018 19.6437 0.5 19.4529 0.5 19.254C0.5 19.0551 0.579018 18.8643 0.71967 18.7237C0.860322 18.583 1.05109 18.504 1.25 18.504L14.25 18.5ZM7.648 0.0119972L7.75 0.00499725C7.93124 0.0050049 8.10634 0.0706399 8.24293 0.189764C8.37952 0.308889 8.46835 0.473444 8.493 0.652997L8.5 0.754997L8.499 14.44L12.221 10.72C12.348 10.593 12.5163 10.5158 12.6955 10.5024C12.8746 10.489 13.0525 10.5403 13.197 10.647L13.282 10.72C13.4089 10.8471 13.4859 11.0155 13.4991 11.1946C13.5123 11.3737 13.4608 11.5516 13.354 11.696L13.281 11.78L8.284 16.777C8.15701 16.904 7.98866 16.9812 7.80955 16.9946C7.63044 17.008 7.45247 16.9567 7.308 16.85L7.223 16.777L2.22 11.781C2.08546 11.6473 2.00655 11.4677 1.99915 11.2782C1.99176 11.0887 2.05642 10.9034 2.18013 10.7597C2.30384 10.6159 2.47741 10.5244 2.6659 10.5035C2.85439 10.4826 3.0438 10.5339 3.196 10.647L3.28 10.719L6.999 14.433L7 0.754997C7.00001 0.57376 7.06564 0.398655 7.18477 0.262067C7.30389 0.125478 7.46845 0.0366455 7.648 0.0119972L7.75 0.00499725L7.648 0.0119972Z" fill="black"/>
</svg>
