<svg width="45" height="45" viewBox="0 0 45 45" fill="none" xmlns="http://www.w3.org/2000/svg">
<path d="M5.625 22.5H22.5V25.3125H5.625V22.5Z" fill="black"/>
<path d="M2.8125 15.4688H16.875V18.2812H2.8125V15.4688Z" fill="black"/>
<path d="M42.0735 23.3522L37.8548 13.5084C37.7465 13.2554 37.5663 13.0398 37.3366 12.8883C37.1068 12.7368 36.8377 12.6561 36.5625 12.6563H32.3437V9.84375C32.3437 9.47079 32.1955 9.1131 31.9318 8.84938C31.6681 8.58566 31.3104 8.4375 30.9375 8.4375H8.43745V11.25H29.5312V28.9069C28.8904 29.279 28.3296 29.7742 27.8812 30.3641C27.4328 30.954 27.1055 31.6268 26.9184 32.3438H18.0815C17.7392 31.0181 16.9253 29.8629 15.7921 29.0945C14.659 28.3261 13.2845 27.9973 11.9264 28.1698C10.5682 28.3423 9.31955 29.0043 8.4145 30.0316C7.50945 31.0588 7.01013 32.3809 7.01013 33.75C7.01013 35.1191 7.50945 36.4412 8.4145 37.4685C9.31955 38.4957 10.5682 39.1577 11.9264 39.3302C13.2845 39.5027 14.659 39.1739 15.7921 38.4055C16.9253 37.6371 17.7392 36.4819 18.0815 35.1563H26.9184C27.2243 36.3631 27.9239 37.4336 28.9065 38.1982C29.8891 38.9628 31.0986 39.378 32.3437 39.378C33.5888 39.378 34.7983 38.9628 35.7809 38.1982C36.7635 37.4336 37.4631 36.3631 37.769 35.1563H40.7812C41.1542 35.1563 41.5118 35.0081 41.7756 34.7444C42.0393 34.4806 42.1875 34.123 42.1875 33.75V23.9063C42.1875 23.7157 42.1488 23.5272 42.0735 23.3522ZM12.6562 36.5625C12.0999 36.5625 11.5562 36.3976 11.0937 36.0885C10.6311 35.7795 10.2707 35.3402 10.0578 34.8263C9.84492 34.3124 9.78922 33.7469 9.89774 33.2013C10.0063 32.6557 10.2741 32.1546 10.6675 31.7613C11.0608 31.3679 11.5619 31.1001 12.1075 30.9915C12.6531 30.883 13.2186 30.9387 13.7325 31.1516C14.2464 31.3645 14.6857 31.7249 14.9947 32.1875C15.3038 32.65 15.4687 33.1937 15.4687 33.75C15.468 34.4957 15.1714 35.2106 14.6441 35.7379C14.1168 36.2652 13.4019 36.5618 12.6562 36.5625ZM32.3437 15.4688H35.6343L38.6493 22.5H32.3437V15.4688ZM32.3437 36.5625C31.7874 36.5625 31.2437 36.3976 30.7812 36.0885C30.3186 35.7795 29.9582 35.3402 29.7453 34.8263C29.5324 34.3124 29.4767 33.7469 29.5852 33.2013C29.6938 32.6557 29.9616 32.1546 30.355 31.7613C30.7483 31.3679 31.2494 31.1001 31.795 30.9915C32.3406 30.883 32.9061 30.9387 33.42 31.1516C33.9339 31.3645 34.3732 31.7249 34.6822 32.1875C34.9912 32.65 35.1562 33.1937 35.1562 33.75C35.1555 34.4957 34.8589 35.2106 34.3316 35.7379C33.8043 36.2652 33.0894 36.5618 32.3437 36.5625ZM39.375 32.3438H37.769C37.4592 31.1392 36.7585 30.0715 35.7767 29.308C34.7949 28.5445 33.5874 28.1285 32.3437 28.125V25.3125H39.375V32.3438Z" fill="black"/>
</svg>
