<svg width="45" height="45" viewBox="0 0 45 45" fill="none" xmlns="http://www.w3.org/2000/svg">
<path d="M25.2938 10.275C27.3563 10.275 29.0438 8.5875 29.0438 6.525C29.0438 4.4625 27.3563 2.775 25.2938 2.775C23.2313 2.775 21.5438 4.4625 21.5438 6.525C21.5438 8.5875 23.2313 10.275 25.2938 10.275ZM19.35 32.775L20.4188 28.0875L24.3563 31.8375V41.2125C24.3563 42.2438 25.2 43.0875 26.2313 43.0875C27.2625 43.0875 28.1063 42.2438 28.1063 41.2125V30.6375C28.1063 29.6063 27.6938 28.6313 26.9438 27.9188L24.1688 25.275L25.2938 19.65C27.4067 22.0656 30.2993 23.6645 33.4688 24.1688C34.5938 24.3375 35.6063 23.4375 35.6063 22.2938C35.6063 21.375 34.9313 20.6063 34.0125 20.4563C31.1625 19.9875 28.8 18.3 27.5438 16.0875L25.6688 13.0875C24.9188 11.9625 23.7938 11.2125 22.4813 11.2125C21.9188 11.2125 21.5438 11.4 20.9813 11.4L13.5188 14.55C12.8395 14.8404 12.2605 15.3239 11.8538 15.9407C11.4471 16.5574 11.2306 17.28 11.2313 18.0188V22.4625C11.2313 23.4938 12.075 24.3375 13.1063 24.3375C14.1375 24.3375 14.9813 23.4938 14.9813 22.4625V17.9625L18.3563 16.65L15.3563 31.8375L8.00626 30.3375C6.99376 30.1313 6.00001 30.7875 5.79376 31.8V31.875C5.58751 32.8875 6.24376 33.8813 7.25626 34.0875L14.9625 35.625C15.921 35.8153 16.9159 35.6239 17.7354 35.0915C18.5549 34.5592 19.1342 33.7281 19.35 32.775Z" fill="black"/>
</svg>
