<svg width="135" height="55" viewBox="0 0 135 55" fill="none" xmlns="http://www.w3.org/2000/svg">
<mask id="mask0" mask-type="alpha" maskUnits="userSpaceOnUse" x="10" y="14" width="34" height="33">
<mask id="path-1-inside-1" mask-type="luminance" fill="white">
<rect x="10.5663" y="14.5922" width="32.8216" height="31.832" rx="10"/>
</mask>
<rect x="10.5663" y="14.5922" width="32.8216" height="31.832" rx="10" fill="#2A365C" stroke="#014EBA" stroke-width="30" stroke-linejoin="round" mask="url(#path-1-inside-1)"/>
</mask>
<g mask="url(#mask0)">
<mask id="mask1" mask-type="alpha" maskUnits="userSpaceOnUse" x="32" y="14" width="12" height="16">
<path d="M32.1706 16.9014L43.386 14.0975V29.4363H32.1706V16.9014Z" fill="#C4C4C4"/>
</mask>
<g mask="url(#mask1)">
<circle cx="38.8887" cy="18.327" r="5.97231" stroke="#F23824" stroke-width="1.25"/>
</g>
</g>
<line x1="2.41421" y1="7.66492" x2="22.3266" y2="27.5773" stroke="#F7F7F7" stroke-width="2" stroke-linecap="round"/>
<line x1="42.9175" y1="49.157" x2="62.8299" y2="29.2446" stroke="#F7F7F7" stroke-width="2" stroke-linecap="round"/>
<path d="M42.8357 7.69149L1.81206 48.8723" stroke="#F7F7F7" stroke-width="2" stroke-linecap="round"/>
<path d="M42.8356 7.69098V48.8718" stroke="#F7F7F7" stroke-width="2" stroke-linecap="round"/>
<path d="M78.341 17.4218L74.315 5.51984H75.943L79.155 15.4198L82.235 5.51984H83.885L79.969 17.4218V23.3398H78.341V17.4218ZM89.6077 23.5378C88.3464 23.5378 87.4664 23.1492 86.9677 22.3718C86.4691 21.5798 86.2197 20.3698 86.2197 18.7418V15.2218C86.2197 13.5938 86.4691 12.3912 86.9677 11.6138C87.4664 10.8218 88.3464 10.4258 89.6077 10.4258C90.8837 10.4258 91.7711 10.8218 92.2697 11.6138C92.7684 12.3912 93.0177 13.5938 93.0177 15.2218V18.7418C93.0177 20.3698 92.7684 21.5798 92.2697 22.3718C91.7711 23.1492 90.8837 23.5378 89.6077 23.5378ZM89.6077 22.3278C90.1357 22.3278 90.5244 22.1885 90.7737 21.9098C91.0377 21.6312 91.2064 21.2572 91.2797 20.7878C91.3531 20.3038 91.3897 19.6512 91.3897 18.8298V15.1338C91.3897 14.3125 91.3531 13.6672 91.2797 13.1978C91.2064 12.7138 91.0377 12.3325 90.7737 12.0538C90.5244 11.7752 90.1357 11.6358 89.6077 11.6358C89.0797 11.6358 88.6911 11.7752 88.4417 12.0538C88.1924 12.3325 88.0311 12.7138 87.9577 13.1978C87.8844 13.6672 87.8477 14.3125 87.8477 15.1338V18.8298C87.8477 19.6512 87.8844 20.3038 87.9577 20.7878C88.0311 21.2572 88.1924 21.6312 88.4417 21.9098C88.6911 22.1885 89.0797 22.3278 89.6077 22.3278ZM96.5908 5.51984H98.1968V11.9658C99.1502 10.9392 100.184 10.4258 101.299 10.4258C101.93 10.4258 102.414 10.6605 102.751 11.1298C103.088 11.5992 103.257 12.2665 103.257 13.1318V23.3398H101.629V13.4838C101.629 12.8385 101.526 12.3765 101.321 12.0978C101.13 11.8192 100.83 11.6798 100.419 11.6798C100.067 11.6798 99.6928 11.7898 99.2968 12.0098C98.9155 12.2298 98.5488 12.5232 98.1968 12.8898V23.3398H96.5908V5.51984ZM109.155 23.5378C108.393 23.5378 107.777 23.2665 107.307 22.7238C106.838 22.1812 106.603 21.5065 106.603 20.6998C106.603 19.8638 106.765 19.1745 107.087 18.6318C107.425 18.0892 107.938 17.6052 108.627 17.1798C109.317 16.7545 110.351 16.2338 111.729 15.6178V14.7158C111.729 13.9238 111.678 13.3078 111.575 12.8678C111.487 12.4278 111.326 12.1125 111.091 11.9218C110.871 11.7312 110.556 11.6358 110.145 11.6358C108.957 11.6358 108.363 12.3618 108.363 13.8138V14.2538L106.779 14.2318C106.794 12.9265 107.073 11.9658 107.615 11.3498C108.158 10.7338 109.031 10.4258 110.233 10.4258C111.348 10.4258 112.14 10.7632 112.609 11.4378C113.093 12.1125 113.335 13.1758 113.335 14.6278V20.8098C113.335 21.2205 113.343 21.6898 113.357 22.2178C113.387 22.7458 113.416 23.1198 113.445 23.3398H112.015L111.773 21.5798C111.583 22.1372 111.253 22.6065 110.783 22.9878C110.329 23.3545 109.786 23.5378 109.155 23.5378ZM109.661 22.1738C110.101 22.1738 110.497 22.0272 110.849 21.7338C111.216 21.4258 111.509 21.0665 111.729 20.6558V16.6958C110.732 17.2238 110.006 17.6345 109.551 17.9278C109.111 18.2212 108.774 18.5512 108.539 18.9178C108.319 19.2698 108.209 19.7318 108.209 20.3038C108.209 20.9345 108.341 21.4038 108.605 21.7118C108.884 22.0198 109.236 22.1738 109.661 22.1738ZM117.019 10.6238H118.625V11.9438C119.051 11.4745 119.52 11.1078 120.033 10.8438C120.561 10.5652 121.111 10.4258 121.683 10.4258C122.314 10.4258 122.798 10.6605 123.135 11.1298C123.473 11.5992 123.641 12.2665 123.641 13.1318V23.3398H122.035V13.4838C122.035 12.8385 121.933 12.3765 121.727 12.0978C121.537 11.8192 121.236 11.6798 120.825 11.6798C120.473 11.6798 120.107 11.7898 119.725 12.0098C119.344 12.2152 118.977 12.5012 118.625 12.8678V23.3398H117.019V10.6238ZM75.503 32.5198H77.175V49.0858H82.235V50.3398H75.503V32.5198ZM88.0394 50.5378C86.778 50.5378 85.898 50.1492 85.3994 49.3718C84.9007 48.5798 84.6514 47.3698 84.6514 45.7418V42.2218C84.6514 40.5938 84.9007 39.3912 85.3994 38.6138C85.898 37.8218 86.778 37.4258 88.0394 37.4258C89.3154 37.4258 90.2027 37.8218 90.7014 38.6138C91.2 39.3912 91.4494 40.5938 91.4494 42.2218V45.7418C91.4494 47.3698 91.2 48.5798 90.7014 49.3718C90.2027 50.1492 89.3154 50.5378 88.0394 50.5378ZM88.0394 49.3278C88.5674 49.3278 88.956 49.1885 89.2054 48.9098C89.4694 48.6312 89.638 48.2572 89.7114 47.7878C89.7847 47.3038 89.8214 46.6512 89.8214 45.8298V42.1338C89.8214 41.3125 89.7847 40.6672 89.7114 40.1978C89.638 39.7138 89.4694 39.3325 89.2054 39.0538C88.956 38.7752 88.5674 38.6358 88.0394 38.6358C87.5114 38.6358 87.1227 38.7752 86.8734 39.0538C86.624 39.3325 86.4627 39.7138 86.3894 40.1978C86.316 40.6672 86.2794 41.3125 86.2794 42.1338V45.8298C86.2794 46.6512 86.316 47.3038 86.3894 47.7878C86.4627 48.2572 86.624 48.6312 86.8734 48.9098C87.1227 49.1885 87.5114 49.3278 88.0394 49.3278ZM97.9045 50.5378C96.9071 50.5378 96.1005 50.2152 95.4845 49.5698C94.8831 48.9245 94.5385 48.0445 94.4505 46.9298L95.7925 46.5118C95.8805 47.4798 96.1078 48.1912 96.4745 48.6458C96.8411 49.1005 97.3545 49.3278 98.0145 49.3278C98.5718 49.3278 98.9971 49.1738 99.2905 48.8658C99.5985 48.5432 99.7525 48.0958 99.7525 47.5238C99.7525 46.6878 99.2391 45.8372 98.2125 44.9718L96.4745 43.4758C95.8731 42.9772 95.4331 42.4858 95.1545 42.0018C94.8758 41.5178 94.7365 40.9458 94.7365 40.2858C94.7365 39.3912 95.0078 38.6945 95.5505 38.1958C96.1078 37.6825 96.8485 37.4258 97.7725 37.4258C98.7111 37.4258 99.4298 37.7265 99.9285 38.3278C100.442 38.9292 100.728 39.7432 100.786 40.7698L99.6425 41.1438C99.5545 39.4718 98.9531 38.6358 97.8385 38.6358C97.3398 38.6358 96.9438 38.7752 96.6505 39.0538C96.3571 39.3178 96.2105 39.6918 96.2105 40.1758C96.2105 40.5718 96.2838 40.9165 96.4305 41.2098C96.5771 41.5032 96.8485 41.8258 97.2445 42.1778L99.0485 43.7838C99.7378 44.3998 100.258 44.9792 100.61 45.5218C100.977 46.0498 101.16 46.7025 101.16 47.4798C101.16 48.4478 100.867 49.2032 100.28 49.7458C99.6938 50.2738 98.9018 50.5378 97.9045 50.5378ZM104.335 32.5198H105.941V38.9658C106.894 37.9392 107.928 37.4258 109.043 37.4258C109.673 37.4258 110.157 37.6605 110.495 38.1298C110.832 38.5992 111.001 39.2665 111.001 40.1318V50.3398H109.373V40.4838C109.373 39.8385 109.27 39.3765 109.065 39.0978C108.874 38.8192 108.573 38.6798 108.163 38.6798C107.811 38.6798 107.437 38.7898 107.041 39.0098C106.659 39.2298 106.293 39.5232 105.941 39.8898V50.3398H104.335V32.5198ZM117.845 50.5378C116.584 50.5378 115.704 50.1492 115.205 49.3718C114.706 48.5798 114.457 47.3698 114.457 45.7418V42.2218C114.457 40.5938 114.706 39.3912 115.205 38.6138C115.704 37.8218 116.584 37.4258 117.845 37.4258C119.121 37.4258 120.008 37.8218 120.507 38.6138C121.006 39.3912 121.255 40.5938 121.255 42.2218V45.7418C121.255 47.3698 121.006 48.5798 120.507 49.3718C120.008 50.1492 119.121 50.5378 117.845 50.5378ZM117.845 49.3278C118.373 49.3278 118.762 49.1885 119.011 48.9098C119.275 48.6312 119.444 48.2572 119.517 47.7878C119.59 47.3038 119.627 46.6512 119.627 45.8298V42.1338C119.627 41.3125 119.59 40.6672 119.517 40.1978C119.444 39.7138 119.275 39.3325 119.011 39.0538C118.762 38.7752 118.373 38.6358 117.845 38.6358C117.317 38.6358 116.928 38.7752 116.679 39.0538C116.43 39.3325 116.268 39.7138 116.195 40.1978C116.122 40.6672 116.085 41.3125 116.085 42.1338V45.8298C116.085 46.6512 116.122 47.3038 116.195 47.7878C116.268 48.2572 116.43 48.6312 116.679 48.9098C116.928 49.1885 117.317 49.3278 117.845 49.3278ZM124.806 37.6238H126.412V38.6798C127.072 37.8438 127.886 37.4258 128.854 37.4258C129.969 37.4258 130.724 37.8878 131.12 38.8118C131.531 39.7212 131.736 40.9458 131.736 42.4858V45.1698C131.736 46.9152 131.509 48.2498 131.054 49.1738C130.6 50.0832 129.808 50.5378 128.678 50.5378C127.886 50.5378 127.131 50.1345 126.412 49.3278V54.5198H124.806V37.6238ZM128.436 49.2618C129.111 49.2618 129.558 48.9465 129.778 48.3158C130.013 47.6852 130.13 46.6512 130.13 45.2138V42.4858C130.13 41.1218 130.013 40.1465 129.778 39.5598C129.558 38.9732 129.096 38.6798 128.392 38.6798C127.732 38.6798 127.072 39.0098 126.412 39.6698V48.3378C126.999 48.9538 127.674 49.2618 128.436 49.2618Z" fill="#F7F7F7"/>
</svg>
